<?xml version="1.0" encoding="utf-8"?>
<!-- Generator: Adobe Illustrator 28.2.0, SVG Export Plug-In . SVG Version: 6.00 Build 0)  -->
<svg version="1.1" id="Ebene_1" xmlns="http://www.w3.org/2000/svg" xmlns:xlink="http://www.w3.org/1999/xlink" x="0px" y="0px"
	 viewBox="0 0 490.4 81.4" style="enable-background:new 0 0 490.4 81.4;" xml:space="preserve">
<style type="text/css">
	.st0{fill:#E30014;}
	.st1{fill:#FFFFFF;}
	.st2{fill:#000050;}
</style>
<rect x="0" class="st0" width="405.1" height="81.4"/>
<g>
	<path class="st1" d="M130.2,54.4l-6.9-14.1l-6.8,14.1h-0.9l-11.6-26.7h8.3l4.9,11.2h0.2l5.6-11.7h0.9l5.9,11.7h0.2l4.8-11.2h8.2
		l-11.6,26.7H130.2z"/>
	<path class="st1" d="M152.4,27.7v26h-7.7v-26H152.4z"/>
	<path class="st1" d="M164.9,47.8H176v5.8h-18.9v-26h18.3v5.8h-10.6v4h9.2V43h-9.2V47.8z"/>
	<path class="st1" d="M216,47.8h11.2v5.8h-18.9v-26h18.3v5.8H216v4h9.2V43H216V47.8z"/>
	<path class="st1" d="M238.6,53.7h-7.7v-26h10.5c3.2,0,5.7,0.9,7.5,2.6s2.7,3.8,2.7,6.3c0,3.1-1.3,5.5-3.9,7.3l5.1,9.8H245l-3.5-7.5
		c-1.3,0.3-2.2,0.5-2.8,0.6V53.7z M244.1,36.5c0-1-0.3-1.7-0.9-2.3c-0.6-0.6-1.5-0.9-2.6-0.9h-2v7.5l1.7-0.4
		c1.3-0.3,2.2-0.8,2.9-1.4C243.8,38.4,244.1,37.5,244.1,36.5z"/>
	<path class="st1" d="M264.2,53.7v-26h7.7v20.2h10.9v5.8H264.2z"/>
	<path class="st1" d="M293.4,27.7v26h-7.7v-26H293.4z"/>
	<path class="st1" d="M334.4,27.7v26h-7.7v-26H334.4z"/>
	<path class="st1" d="M346.9,47.8H358v5.8h-18.9v-26h18.3v5.8h-10.6v4h9.2V43h-9.2V47.8z"/>
	<g>
		<path class="st1" d="M38.2,61.9c-0.3,0-0.5-0.2-0.5-0.5c0-0.2,0.1-0.3,0.2-0.4l10-7.4l-26.3,0c-0.3,0-0.5-0.2-0.5-0.5
			c0-0.2,0.1-0.3,0.2-0.4l13.7-10.1c0.1-0.1,0.2-0.1,0.3-0.1h10.7c2.4,0.1,3.7,0.3,4.4,0.8c0.9,0.6,1.2,1.3,1.3,1.7
			c1.2,3.3,2.7,13.7,2.8,14.2c0.1-0.5,1.6-10.9,2.8-14.2c0.2-0.5,0.4-1.1,1.3-1.7c0.7-0.5,2-0.7,4.4-0.8h26.1c0.3,0,0.5,0.2,0.5,0.5
			c0,0.2-0.1,0.3-0.2,0.4L64.6,61.8c-0.1,0.1-0.2,0.1-0.3,0.1H38.2z"/>
		<path class="st1" d="M87.6,27.7c0.3,0,0.5,0.2,0.5,0.5c0,0.2-0.1,0.3-0.2,0.4L74,38.8c-0.1,0.1-0.2,0.1-0.3,0.1H63.1
			c-2.4-0.1-3.7-0.3-4.4-0.8c-0.9-0.6-1.2-1.3-1.3-1.7c-1.2-3.3-2.7-13.7-2.8-14.2C54.5,22.6,53,33,51.8,36.3
			c-0.2,0.5-0.4,1.1-1.3,1.7c-0.7,0.5-2,0.7-4.4,0.8l-26.1,0c-0.3,0-0.5-0.2-0.5-0.5c0-0.1,0.1-0.3,0.2-0.4l0.8-0.6l24.2-17.9
			c0.1-0.1,0.2-0.1,0.3-0.1H71c0.3,0,0.5,0.2,0.5,0.5c0,0.2-0.1,0.3-0.2,0.4l-10,7.4L87.6,27.7z"/>
	</g>
	<polygon class="st1" points="195.9,27.7 195.9,39.5 195.7,39.5 181.1,27 179.8,27 179.8,53.7 187.5,53.7 187.5,41.8 187.7,41.8 
		202.3,54.3 203.6,54.3 203.6,27.7 	"/>
	<polygon class="st1" points="314.2,27.7 314.2,39.5 314.1,39.5 299.4,27 298.1,27 298.1,53.7 305.9,53.7 305.9,41.8 306,41.8 
		320.6,54.3 321.9,54.3 321.9,27.7 	"/>
	<polygon class="st1" points="377.9,27.7 377.9,39.5 377.7,39.5 363.1,27 361.8,27 361.8,53.7 369.5,53.7 369.5,41.8 369.7,41.8 
		384.3,54.3 385.6,54.3 385.6,27.7 	"/>
</g>
<g>
	<path class="st2" d="M475.4,33.8L473,45.9l-2.4-12.1c-0.3-1.6-1.7-2.7-3.3-2.7h-58.4v50.3v0.2h81.5v-0.2V31h-11.7
		C477.1,31,475.7,32.2,475.4,33.8z"/>
	<path class="st2" d="M408.9-0.1v27.5h58.4c1.6,0,3-1.2,3.3-2.7l2.4-12.1l2.4,12.1c0.3,1.6,1.7,2.7,3.3,2.7h11.7V-0.1H408.9z"/>
	<path class="st1" d="M475.4,24.7L473,12.6l-2.4,12.1c-0.3,1.6-1.7,2.7-3.3,2.7h-58.4V31h58.4c1.6,0,3,1.2,3.3,2.7l2.4,12.1
		l2.4-12.1c0.3-1.6,1.7-2.7,3.3-2.7h11.7v-3.6h-11.7C477.1,27.4,475.7,26.3,475.4,24.7z"/>
</g>
</svg>
